<?xml version="1.0" encoding="UTF-8" standalone="no"?>
<svg
   xmlns:dc="http://purl.org/dc/elements/1.1/"
   xmlns:cc="http://creativecommons.org/ns#"
   xmlns:rdf="http://www.w3.org/1999/02/22-rdf-syntax-ns#"
   xmlns:svg="http://www.w3.org/2000/svg"
   xmlns="http://www.w3.org/2000/svg"
   xmlns:sodipodi="http://sodipodi.sourceforge.net/DTD/sodipodi-0.dtd"
   xmlns:inkscape="http://www.inkscape.org/namespaces/inkscape"
   version="1.0"
   width="1280pt"
   height="1280pt"
   viewBox="0 0 1280 1280"
   preserveAspectRatio="xMidYMid meet"
   id="svg8"
   sodipodi:docname="icon4.svg"
   inkscape:export-filename="icon4-200.png"
   inkscape:export-xdpi="11.25"
   inkscape:export-ydpi="11.25"
   inkscape:version="0.92.3 (2405546, 2018-03-11)">
  <defs
     id="defs12" />
  <sodipodi:namedview
     pagecolor="#ffffff"
     bordercolor="#666666"
     borderopacity="1"
     objecttolerance="10"
     gridtolerance="10"
     guidetolerance="10"
     inkscape:pageopacity="0"
     inkscape:pageshadow="2"
     inkscape:window-width="1920"
     inkscape:window-height="1016"
     id="namedview10"
     showgrid="false"
     inkscape:zoom="0.1828125"
     inkscape:cx="-1329.2308"
     inkscape:cy="528.78633"
     inkscape:window-x="0"
     inkscape:window-y="27"
     inkscape:window-maximized="1"
     inkscape:current-layer="svg8" />
  <metadata
     id="metadata2">
Created by potrace 1.15, written by Peter Selinger 2001-2017
<rdf:RDF>
  <cc:Work
     rdf:about="">
    <dc:format>image/svg+xml</dc:format>
    <dc:type
       rdf:resource="http://purl.org/dc/dcmitype/StillImage" />
    <dc:title />
  </cc:Work>
</rdf:RDF>
</metadata>
  <g
     transform="matrix(0.11013987,-0.03845491,-0.03845491,-0.11013987,150.17869,1362.3609)"
     id="g6"
     style="fill:#000000;stroke:none">
    <path
       d="m 11085,8237 c -56,-31 -56,-56 -1,-164 50,-98 70,-172 61,-220 -6,-32 -5,-33 28,-33 37,0 63,-21 54,-45 -4,-8 32,-93 80,-190 47,-97 84,-177 82,-179 -13,-10 -300,-138 -303,-135 -22,23 -146,296 -146,320 0,22 -5,32 -20,36 -29,8 -25,25 25,105 50,81 54,102 26,156 -44,86 -134,135 -246,136 -49,0 -80,-5 -103,-17 -97,-53 -168,-278 -116,-368 34,-58 67,-74 150,-74 83,0 97,-9 87,-58 -5,-22 -2,-29 14,-33 13,-4 42,-50 88,-144 38,-77 67,-141 65,-144 -3,-2 -324,-150 -715,-329 -390,-179 -982,-449 -1315,-602 -333,-152 -610,-279 -615,-281 -6,-3 -19,18 -29,45 -67,188 -429,555 -701,710 -168,96 -413,160 -645,168 -263,10 -449,-33 -715,-164 -127,-63 -241,-141 -550,-378 -148,-114 -290,-217 -315,-230 -70,-35 -157,-49 -275,-42 l -103,6 -51,-80 c -28,-44 -51,-82 -51,-85 0,-2 18,-22 41,-45 23,-23 52,-66 66,-96 22,-47 25,-65 21,-127 -9,-131 -76,-223 -239,-329 -236,-154 -530,-267 -825,-317 -138,-24 -216,-25 -344,-5 -122,18 -189,39 -272,82 -132,69 -207,188 -216,342 l -5,88 -66,7 c -120,11 -115,12 -147,-50 -32,-62 -85,-113 -157,-150 -58,-30 -264,-80 -527,-129 -425,-79 -548,-108 -787,-189 C 993,4877 776,4759 555,4562 285,4322 137,4070 71,3740 24,3502 -8,3077 4,2839 c 17,-345 130,-706 287,-912 48,-64 50,-69 39,-97 -18,-44 -14,-124 10,-176 24,-56 92,-137 148,-179 23,-16 44,-41 47,-55 13,-49 83,-188 134,-263 C 860,874 1320,454 1638,271 1976,78 2407,-26 2720,9 c 343,39 727,184 976,367 148,108 420,355 669,607 153,155 204,200 260,230 96,53 199,86 289,94 l 75,6 45,67 44,67 -51,34 c -132,87 -181,264 -123,442 76,228 202,377 531,627 234,178 389,265 559,314 101,30 142,32 192,11 55,-23 151,-122 222,-230 36,-55 66,-101 66,-102 1,0 46,-4 102,-8 l 101,-7 33,58 c 40,72 135,172 207,220 77,51 179,85 417,139 234,52 345,88 544,176 255,113 376,191 517,333 154,154 248,312 321,534 114,347 99,710 -47,1156 -22,66 -38,120 -37,121 22,13 2779,1505 2782,1505 3,0 36,-66 75,-146 39,-80 80,-153 92,-163 l 22,-18 -21,-35 -22,-36 24,-15 c 51,-34 97,-95 128,-170 43,-103 69,-131 111,-123 39,8 81,37 85,60 2,9 -14,45 -37,79 -53,82 -61,107 -68,203 -5,74 -8,83 -29,93 -13,6 -24,17 -24,24 0,8 -36,89 -80,181 -44,91 -80,170 -80,174 0,7 181,112 193,112 4,0 32,-52 62,-116 38,-81 53,-124 49,-140 -5,-19 -1,-26 19,-33 41,-16 42,-41 2,-78 -53,-48 -69,-94 -55,-152 19,-76 71,-121 187,-160 144,-48 230,-11 296,127 25,54 29,72 25,125 -5,75 -30,130 -66,147 -15,6 -61,15 -103,20 -92,9 -103,14 -86,41 10,17 8,22 -15,42 -15,12 -34,39 -43,59 -8,20 -35,78 -59,127 l -44,91 65,34 c 52,28 70,33 85,25 29,-16 73,-1 144,47 35,24 66,44 68,44 2,0 6,-14 10,-30 3,-17 18,-42 33,-56 25,-24 34,-26 88,-21 76,6 139,37 161,79 14,27 15,40 5,81 -6,28 -10,51 -9,52 2,1 20,12 41,24 65,40 85,91 51,139 -15,21 -14,22 16,22 22,0 41,9 62,30 29,29 30,34 24,83 -10,72 -50,185 -77,213 -35,37 -72,40 -135,9 -30,-15 -56,-25 -58,-24 -1,2 -12,18 -25,36 -29,42 -75,52 -137,28 -25,-9 -46,-16 -47,-14 -1,2 -11,21 -22,43 -26,51 -57,70 -115,69 -96,-1 -159,-56 -168,-145 -4,-39 0,-55 16,-77 l 20,-27 -45,-13 c -54,-14 -110,-66 -119,-109 -5,-25 -14,-31 -62,-47 -32,-9 -109,-40 -172,-67 -142,-62 -153,-65 -113,-38 l 32,21 -80,160 c -43,88 -79,163 -79,168 0,5 -9,20 -21,35 -14,18 -19,34 -15,54 5,23 0,31 -35,56 -60,42 -115,118 -134,184 -31,106 -49,119 -120,79 z"
       id="path4"
       inkscape:connector-curvature="0" />
  </g>
</svg>
