<?xml version="1.0" encoding="UTF-8" standalone="no"?>
<svg
   xmlns:dc="http://purl.org/dc/elements/1.1/"
   xmlns:cc="http://creativecommons.org/ns#"
   xmlns:rdf="http://www.w3.org/1999/02/22-rdf-syntax-ns#"
   xmlns:svg="http://www.w3.org/2000/svg"
   xmlns="http://www.w3.org/2000/svg"
   xmlns:sodipodi="http://sodipodi.sourceforge.net/DTD/sodipodi-0.dtd"
   xmlns:inkscape="http://www.inkscape.org/namespaces/inkscape"
   version="1.0"
   width="1280pt"
   height="1280pt"
   viewBox="0 0 1280 1280"
   preserveAspectRatio="xMidYMid meet"
   id="svg12"
   sodipodi:docname="icon5.svg"
   inkscape:export-filename="icon5-300.png"
   inkscape:export-xdpi="16.875"
   inkscape:export-ydpi="16.875"
   inkscape:version="0.92.3 (2405546, 2018-03-11)">
  <defs
     id="defs16" />
  <sodipodi:namedview
     pagecolor="#ffffff"
     bordercolor="#666666"
     borderopacity="1"
     objecttolerance="10"
     gridtolerance="10"
     guidetolerance="10"
     inkscape:pageopacity="0"
     inkscape:pageshadow="2"
     inkscape:window-width="1920"
     inkscape:window-height="1016"
     id="namedview14"
     showgrid="false"
     inkscape:zoom="0.13828125"
     inkscape:cx="-587.68362"
     inkscape:cy="824.40678"
     inkscape:window-x="0"
     inkscape:window-y="27"
     inkscape:window-maximized="1"
     inkscape:current-layer="svg12" />
  <metadata
     id="metadata2">
Created by potrace 1.15, written by Peter Selinger 2001-2017
<rdf:RDF>
  <cc:Work
     rdf:about="">
    <dc:format>image/svg+xml</dc:format>
    <dc:type
       rdf:resource="http://purl.org/dc/dcmitype/StillImage" />
    <dc:title />
  </cc:Work>
</rdf:RDF>
</metadata>
  <g
     transform="matrix(0.1,0,0,-0.1,14.899207,1280.1051)"
     id="g10"
     style="fill:#000000;stroke:none">
    <path
       d="m 385,12786 c -17,-7 -36,-20 -44,-29 -10,-12 -18,-14 -31,-7 -35,19 -77,12 -99,-16 -12,-15 -21,-33 -21,-40 0,-11 -10,-13 -37,-9 -52,8 -98,-22 -125,-81 -45,-102 -30,-361 33,-547 36,-109 68,-164 121,-213 37,-33 45,-36 84,-31 l 43,4 25,-51 c 14,-28 59,-102 101,-164 l 75,-112 -45,-22 c -41,-20 -50,-21 -103,-10 -156,32 -229,4 -308,-119 l -47,-72 16,-80 c 19,-97 55,-158 122,-209 39,-29 53,-48 66,-87 35,-109 109,-178 215,-202 48,-11 59,-10 116,10 146,52 173,90 165,227 l -5,92 51,22 c 29,12 57,24 63,26 6,3 28,-18 49,-46 l 38,-51 41,40 c 43,42 100,71 138,71 45,-1 108,-40 190,-117 141,-134 190,-174 253,-206 52,-27 71,-32 136,-32 64,0 86,5 138,30 l 62,29 83,-84 c 60,-61 2655,-2778 3772,-3950 l 24,-25 95,95 95,95 452,-452 451,-451 -60,-69 c -33,-37 -80,-96 -105,-129 l -45,-62 46,-243 c 25,-134 46,-246 47,-248 3,-3 417,235 481,276 20,14 37,-4 423,-463 l 401,-478 -81,-81 -81,-81 79,-94 c 208,-252 419,-422 993,-803 161,-107 189,-130 325,-269 250,-257 418,-459 568,-686 107,-161 160,-259 282,-513 119,-249 175,-353 265,-488 57,-84 68,-107 57,-116 -27,-25 -278,-169 -428,-245 -423,-213 -793,-326 -1340,-405 -164,-24 -205,-27 -360,-22 -96,3 -218,13 -270,22 -567,96 -1120,401 -1590,876 -120,121 -128,132 -188,252 -117,234 -178,404 -330,917 -39,129 -87,276 -108,325 -78,184 -189,308 -326,361 l -68,27 28,14 c 143,75 262,237 313,428 33,123 31,337 -5,510 -33,159 -104,376 -182,554 l -59,134 -145,146 c -80,81 -183,177 -230,215 -273,217 -523,326 -749,326 -117,0 -191,-17 -293,-69 -43,-21 -78,-38 -78,-37 0,1 -5,29 -11,61 -15,81 -48,143 -111,204 -66,65 -112,96 -318,211 -343,193 -481,302 -665,525 -192,233 -305,455 -346,675 -16,84 -16,257 0,340 65,350 305,693 761,1085 58,50 119,101 137,115 23,18 30,29 23,39 -18,30 -429,-344 -591,-538 -323,-386 -437,-761 -343,-1125 51,-198 168,-411 338,-613 192,-230 331,-340 661,-523 334,-186 413,-268 431,-447 l 7,-72 41,28 c 113,78 219,111 358,111 289,0 605,-177 959,-537 148,-150 152,-156 241,-378 68,-168 117,-331 144,-485 25,-138 23,-341 -4,-447 -49,-192 -164,-340 -329,-426 -35,-17 -63,-35 -63,-38 0,-4 18,-9 40,-13 154,-25 281,-126 369,-296 50,-96 84,-193 176,-504 124,-419 188,-593 304,-824 53,-107 72,-133 157,-221 270,-281 578,-509 919,-677 355,-175 636,-249 985,-261 192,-6 293,4 600,58 530,95 951,255 1445,549 104,62 828,525 854,546 2,2 -1,9 -7,17 -8,10 15,34 101,107 146,124 398,370 501,490 291,337 458,651 532,1004 35,167 45,465 20,615 -84,499 -423,980 -1000,1415 -283,214 -451,306 -785,431 -234,88 -315,126 -389,185 -89,70 -175,204 -213,330 -7,22 -15,40 -19,40 -3,0 -31,-18 -61,-41 -70,-52 -177,-104 -259,-126 -88,-24 -314,-23 -420,1 -193,43 -442,152 -653,284 -266,167 -345,229 -533,416 -249,250 -361,406 -400,557 -32,125 -7,184 142,342 72,76 101,113 92,117 -7,4 -39,12 -70,19 -72,15 -163,75 -205,133 -52,73 -78,136 -148,352 -81,253 -125,357 -200,473 -78,118 -138,185 -251,279 -684,565 -1532,646 -2494,240 -101,-43 -106,-44 -125,-27 -601,529 -2132,1883 -2429,2149 -30,26 -35,36 -25,43 18,11 24,11 112,-2 100,-15 145,-2 206,59 25,26 59,71 74,100 27,50 28,55 17,110 -30,148 -104,232 -233,266 -54,14 -59,14 -115,-8 -33,-13 -67,-28 -77,-33 -14,-8 -24,-3 -53,29 -42,46 -92,74 -161,89 -45,9 -55,8 -124,-21 -41,-17 -91,-47 -111,-66 -50,-48 -55,-83 -30,-221 6,-31 4,-33 -57,-62 -42,-19 -94,-33 -151,-40 -48,-6 -125,-22 -170,-35 -46,-14 -84,-23 -86,-21 -2,1 16,13 39,26 62,35 81,78 76,164 -8,126 -58,241 -167,385 -94,124 -150,181 -234,241 -101,72 -193,95 -261,65 z m 188,-58 c 82,-44 193,-150 285,-273 84,-112 115,-174 144,-289 31,-122 13,-186 -60,-215 -20,-8 -332,-61 -358,-61 -3,0 0,9 6,19 28,54 -12,292 -72,422 -49,106 -150,218 -265,294 -24,15 -43,29 -43,31 0,2 8,19 17,39 18,37 35,43 77,23 21,-9 29,-8 43,5 63,56 126,58 226,5 z m -340,-125 c 89,-59 191,-161 236,-237 43,-72 101,-277 104,-366 2,-73 -18,-120 -52,-120 -11,0 -21,-5 -23,-11 -7,-21 -66,1 -127,47 -127,95 -200,201 -209,301 -6,66 15,103 57,103 77,0 196,-138 196,-227 0,-33 4,-43 15,-41 41,8 4,129 -64,212 -36,44 -108,86 -147,86 -59,0 -96,-66 -85,-149 11,-82 59,-162 146,-244 110,-104 198,-146 248,-117 27,16 363,68 359,56 -2,-6 -53,-37 -113,-69 -85,-45 -193,-109 -243,-144 -2,-1 -1,-8 2,-16 4,-12 17,-10 74,9 47,16 91,24 144,24 168,0 287,-68 510,-290 181,-180 569,-589 569,-600 0,-19 -107,-54 -165,-54 -95,-1 -166,39 -315,180 -143,133 -205,174 -268,174 -47,0 -102,-24 -145,-64 l -28,-26 -24,28 c -13,15 -25,30 -25,33 0,3 44,25 98,49 53,24 103,50 109,59 24,29 15,78 -21,119 -64,70 -66,70 -204,8 l -122,-54 -20,28 c -11,15 -20,30 -20,32 0,3 46,25 101,49 89,38 104,48 116,77 12,28 12,37 -2,66 -20,42 -90,100 -113,93 -9,-3 -67,-27 -129,-55 l -111,-50 -75,111 c -58,86 -122,201 -143,255 0,1 -15,-5 -33,-14 -27,-13 -37,-14 -62,-4 -85,35 -163,231 -189,470 -22,202 14,330 92,330 17,0 57,-19 101,-47 z m 1496,-290 c 19,-9 49,-32 67,-50 l 33,-33 -24,-36 c -20,-29 -25,-49 -25,-98 0,-34 4,-78 9,-98 l 9,-38 -65,-34 -64,-34 -58,24 c -33,13 -101,32 -152,42 l -93,19 38,18 c 30,14 36,22 32,39 -2,12 -10,49 -16,83 -21,108 12,158 137,207 63,24 101,22 172,-11 z m -1060,-1033 22,-31 -43,-19 c -59,-27 -104,-26 -119,2 -7,12 -8,23 -3,25 5,2 32,14 59,27 28,14 53,25 56,25 3,1 15,-13 28,-29 z M 5955,9795 c 189,-34 344,-81 490,-148 297,-136 569,-341 711,-536 96,-131 152,-259 233,-526 100,-326 175,-431 349,-489 l 53,-18 -80,-83 c -131,-137 -167,-225 -142,-347 34,-162 224,-419 489,-664 114,-105 139,-125 292,-230 316,-219 587,-347 855,-405 92,-20 335,-17 414,5 83,23 172,63 239,110 53,35 72,38 72,11 0,-7 21,-55 47,-106 36,-74 62,-110 122,-170 94,-93 164,-130 431,-229 241,-89 421,-176 568,-274 411,-275 729,-576 935,-884 144,-215 243,-468 278,-703 15,-104 6,-403 -15,-521 -62,-333 -209,-637 -462,-953 -107,-133 -383,-411 -554,-557 l -125,-108 -35,43 c -75,90 -146,165 -509,537 -206,212 -419,435 -474,495 -271,300 -547,683 -631,875 -119,273 -243,515 -378,739 -141,234 -271,431 -283,431 -19,0 -157,-52 -246,-93 l -76,-35 -332,481 c -298,433 -330,483 -312,491 16,7 23,32 42,157 22,140 30,167 42,137 5,-13 763,-1137 775,-1150 4,-4 13,-4 20,1 9,5 -102,178 -396,611 l -408,604 16,98 c 9,54 19,100 22,103 2,2 80,-61 174,-142 450,-389 722,-573 934,-629 90,-24 251,-23 359,1 140,31 181,86 166,221 -7,65 -10,71 -52,111 -71,66 -124,88 -216,88 -76,0 -80,-1 -108,-33 -36,-40 -38,-80 -4,-116 30,-33 117,-74 177,-84 41,-7 43,-9 46,-44 3,-34 1,-37 -33,-48 -63,-21 -238,22 -387,95 -42,20 -253,176 -580,427 -614,473 -719,543 -878,584 -51,13 -73,14 -126,5 -35,-7 -70,-14 -77,-17 -8,-3 -429,360 -1018,877 -552,485 -1223,1073 -1490,1308 l -487,426 71,33 c 110,51 369,141 514,177 118,30 328,68 438,79 95,9 453,-3 540,-19 z m 1131,-2676 240,-211 -38,-41 c -48,-53 -64,-97 -49,-139 6,-17 10,-32 9,-34 -6,-5 -679,608 -674,613 12,13 78,21 171,22 l 100,1 z m -129,-210 c 235,-212 443,-399 462,-415 l 34,-30 -76,-36 c -41,-20 -112,-60 -157,-88 l -81,-53 -26,24 c -29,26 -795,750 -853,805 -33,33 -34,34 -15,48 49,37 260,138 277,133 3,-1 199,-176 435,-388 z m -302,-211 c 250,-237 454,-432 453,-433 -41,-31 -157,-132 -201,-174 l -57,-56 -445,445 c -245,245 -445,449 -444,455 0,14 219,195 235,195 2,0 209,-194 459,-432 z m 993,175 c 153,-61 218,-107 842,-588 299,-231 491,-372 538,-396 180,-91 398,-132 451,-85 22,20 29,87 12,114 -4,7 -36,20 -70,27 -79,19 -136,48 -158,81 -15,23 -15,29 -2,52 39,70 188,47 288,-43 34,-31 39,-42 45,-96 9,-73 -5,-121 -43,-148 -67,-48 -317,-69 -441,-36 -216,56 -479,235 -967,661 -126,110 -143,128 -143,156 0,28 -2,30 -29,25 -26,-6 -40,3 -118,69 -168,145 -246,187 -349,189 -70,2 -94,8 -94,25 0,13 27,18 103,19 53,1 84,-5 135,-26 z m -260,-19 c 27,-19 28,-29 2,-61 -11,-14 -20,-31 -20,-37 0,-6 25,-27 55,-46 60,-39 70,-64 35,-95 -19,-17 -26,-18 -66,-7 -66,18 -123,88 -124,152 0,25 9,46 31,73 33,40 53,45 87,21 z m 225,-55 c 78,-40 263,-180 275,-208 1,-4 -25,-12 -59,-17 l -62,-10 -141,123 c -77,68 -143,128 -145,135 -6,17 82,2 132,-23 z m -23,-121 c 71,-62 129,-115 129,-118 1,-3 -54,-22 -120,-44 l -121,-38 -49,48 -49,49 h 46 c 38,0 50,5 65,25 9,14 20,39 23,55 6,27 2,33 -44,65 -28,18 -54,38 -57,42 -8,14 19,39 34,33 8,-2 72,-56 143,-117 z m 353,-132 c 17,-13 17,-18 2,-107 -9,-52 -18,-95 -19,-96 -4,-4 -126,175 -126,185 0,6 26,14 58,20 31,5 59,10 62,10 3,1 13,-5 23,-12 z m -105,-139 82,-122 -26,-162 c -17,-105 -31,-164 -40,-167 -8,-3 -71,78 -176,232 -90,130 -167,242 -171,249 -8,12 34,29 168,68 44,13 80,24 81,24 1,1 38,-54 82,-122 z m -198,-220 c 91,-133 165,-245 165,-250 0,-5 -64,-46 -142,-92 l -143,-84 -176,241 c -96,132 -178,246 -180,252 -7,18 262,174 301,175 6,0 84,-109 175,-242 z m -316,-211 c 92,-125 165,-230 164,-232 -2,-1 -61,-36 -132,-78 l -128,-74 -32,36 c -33,38 -280,333 -305,365 -13,16 -10,22 25,59 21,22 77,73 124,114 79,68 86,72 101,56 9,-9 91,-120 183,-246 z m -294,-201 c 106,-126 164,-202 157,-207 -7,-3 -109,-63 -227,-132 -183,-107 -216,-123 -222,-108 -4,9 -23,108 -44,220 -33,179 -35,204 -22,220 8,9 49,61 93,115 43,54 82,96 88,94 5,-1 85,-93 177,-202 z m 1135,-352 c 295,-428 327,-478 311,-487 -10,-6 -68,-44 -129,-83 -61,-40 -112,-72 -113,-70 -1,1 -157,216 -348,477 -241,331 -342,477 -333,482 125,77 264,157 273,157 6,1 159,-214 339,-476 z m -290,-201 337,-463 -27,-20 c -14,-12 -52,-43 -83,-70 -44,-38 -59,-46 -69,-36 -46,48 -782,931 -779,935 3,2 60,37 128,76 113,67 124,72 139,57 9,-9 168,-224 354,-479 z m 983,-194 21,-32 -104,-53 c -265,-133 -481,-290 -689,-499 -63,-64 -93,-101 -87,-107 7,-7 50,28 125,100 209,201 398,338 637,462 l 136,71 95,-152 c 191,-307 368,-636 468,-873 80,-191 254,-450 500,-744 150,-180 286,-326 667,-714 195,-197 387,-399 428,-447 l 75,-88 -78,-64 c -112,-92 -125,-102 -364,-257 l -218,-140 -81,122 c -53,80 -139,240 -250,462 -92,187 -199,388 -236,448 -148,234 -338,470 -606,751 -150,157 -152,159 -391,319 -414,276 -587,404 -755,563 -91,85 -241,260 -241,280 0,15 215,214 323,298 149,115 336,221 517,292 47,18 86,33 87,34 0,0 10,-14 21,-32 z"
       id="path4"
       inkscape:connector-curvature="0" />
    <path
       d="m 5455,9964 c -229,-19 -561,-89 -805,-171 -121,-40 -348,-129 -359,-139 -3,-2 0,-9 6,-15 7,-7 49,5 134,39 886,353 1643,341 2269,-36 117,-71 293,-206 383,-295 155,-154 250,-315 397,-672 49,-120 108,-250 132,-289 86,-145 202,-231 349,-257 l 70,-12 -33,-34 c -18,-18 -77,-56 -132,-85 -113,-57 -189,-123 -207,-175 -24,-75 11,-189 98,-312 64,-91 165,-211 178,-211 5,0 70,-63 143,-139 138,-146 256,-243 457,-378 573,-385 1012,-438 1391,-168 l 62,45 17,-53 c 53,-163 166,-304 325,-405 67,-44 210,-111 395,-187 334,-136 535,-251 800,-457 145,-113 392,-351 485,-468 255,-320 385,-648 405,-1021 3,-63 11,-171 16,-240 21,-264 -25,-513 -136,-736 -171,-342 -467,-708 -805,-999 C 10907,1594 10308,1196 9793,966 9532,849 9143,744 8735,678 c -183,-29 -536,-36 -696,-14 -146,20 -324,64 -459,112 -294,106 -663,333 -955,588 -105,92 -295,273 -359,343 -76,83 -121,185 -326,743 -202,552 -333,807 -499,971 -55,54 -97,85 -149,110 -39,19 -71,36 -71,39 -1,3 29,21 65,40 193,102 328,265 370,446 22,99 20,287 -6,415 -26,130 -91,326 -162,490 -70,160 -82,181 -204,336 -222,282 -421,423 -669,474 -199,41 -389,11 -581,-91 l -91,-48 -7,61 c -17,168 -115,275 -471,514 -132,88 -283,193 -335,234 -293,225 -565,594 -670,907 -46,138 -63,257 -57,402 10,248 96,463 287,718 117,157 419,447 632,607 63,47 79,67 60,79 -4,2 -69,-45 -145,-105 -468,-375 -737,-718 -833,-1059 -31,-114 -44,-343 -25,-456 19,-113 69,-262 127,-379 37,-74 46,-100 30,-80 -14,17 -25,33 -26,38 0,4 -6,7 -14,7 -33,0 -33,-285 -1,-440 72,-348 263,-623 640,-917 50,-38 176,-130 280,-203 271,-189 331,-236 411,-317 101,-101 129,-161 129,-277 v -89 l 69,-23 68,-23 52,43 c 150,128 280,180 446,180 119,1 195,-20 303,-81 212,-119 408,-351 543,-638 75,-162 111,-280 115,-388 2,-47 -2,-62 -25,-96 -40,-57 -113,-123 -195,-176 -109,-70 -166,-94 -212,-88 -46,7 -46,6 -23,-96 12,-54 23,-77 45,-95 15,-13 33,-26 38,-28 6,-1 19,-81 30,-176 20,-170 20,-173 1,-215 -11,-23 -20,-64 -20,-90 0,-40 5,-53 28,-77 16,-15 49,-34 73,-40 187,-50 260,-108 347,-270 56,-104 73,-149 147,-403 88,-298 118,-381 185,-522 61,-129 153,-266 304,-454 C 6817,445 7389,111 8168,14 8276,1 8326,0 8495,10 c 546,30 851,101 1280,298 446,204 1062,608 1430,938 528,474 873,892 1038,1258 90,202 127,341 171,646 17,119 35,202 56,258 16,45 30,84 30,87 0,2 -8,5 -17,7 -16,3 -18,19 -18,168 -1,228 -21,508 -46,637 -54,280 -170,528 -367,783 -90,117 -322,346 -467,461 -314,250 -434,319 -890,513 -288,122 -391,181 -490,281 -83,84 -125,151 -167,271 -17,49 -32,90 -34,92 -1,2 -37,-23 -80,-54 -96,-69 -186,-115 -284,-146 -101,-31 -334,-33 -450,-4 -251,64 -529,213 -840,450 -67,51 -350,325 -350,338 0,5 11,8 25,8 14,0 37,11 50,25 31,30 32,69 5,145 -17,48 -19,84 -20,271 v 215 l 31,23 c 29,21 31,27 27,70 -3,25 -11,59 -19,76 -13,27 -18,29 -79,31 -68,3 -160,30 -214,64 -49,30 -128,117 -169,187 -41,71 -73,143 -146,326 -173,433 -337,643 -692,883 -123,84 -347,196 -473,238 -114,39 -255,73 -376,91 -104,15 -398,27 -495,19 z M 8084,8066 c 8,-44 0,-63 -30,-70 l -25,-7 4,-247 c 3,-199 7,-258 21,-305 16,-54 16,-60 1,-83 -12,-19 -24,-24 -54,-24 -37,0 -42,4 -105,88 -37,48 -86,125 -109,171 -37,74 -42,93 -42,151 0,89 28,132 143,213 47,34 107,81 132,104 25,24 48,43 51,43 4,0 10,-15 13,-34 z m -321,-178 c -53,-59 -68,-152 -38,-238 17,-49 19,-61 5,-40 -6,8 -19,44 -30,80 -27,85 -20,129 29,181 39,41 70,56 34,17 z M 2611,6920 c 104,-139 343,-386 479,-494 47,-37 198,-142 335,-234 385,-257 456,-338 463,-534 3,-54 7,-98 11,-98 3,0 26,14 51,31 72,49 169,95 260,124 244,78 484,20 760,-184 114,-84 296,-266 352,-351 114,-172 231,-461 279,-690 30,-142 32,-358 5,-445 l -19,-60 -22,90 c -76,305 -295,655 -522,836 -146,116 -269,167 -423,176 -163,9 -318,-45 -464,-162 -38,-30 -72,-55 -76,-55 -4,0 -26,7 -51,15 l -44,15 3,75 c 3,67 0,83 -26,139 -57,122 -182,233 -547,486 -547,379 -774,646 -875,1025 -25,98 -46,313 -36,378 4,27 9,47 10,45 2,-1 45,-59 97,-128 z M 5191,3514 c 135,-40 254,-128 336,-249 85,-127 140,-254 282,-664 117,-334 186,-509 271,-686 61,-127 76,-150 167,-250 333,-368 770,-694 1154,-861 296,-129 554,-192 824,-201 310,-11 792,72 1320,226 378,111 1196,589 1700,995 252,203 580,523 762,743 152,186 309,442 361,592 19,54 21,33 6,-67 -49,-329 -121,-533 -285,-807 -166,-278 -503,-656 -904,-1014 C 10852,973 10315,612 9883,396 9442,175 9097,81 8620,51 8529,45 8423,38 8384,35 c -74,-5 -263,14 -405,41 -432,80 -803,248 -1143,517 -257,203 -642,644 -796,914 -58,100 -120,259 -180,458 -105,349 -123,402 -158,480 -46,103 -97,178 -159,237 -61,56 -108,81 -204,108 -116,31 -143,80 -98,173 l 21,44 -22,194 c -12,106 -22,194 -23,195 -1,0 -16,6 -34,13 -17,7 -35,20 -39,29 -11,29 -22,92 -14,92 3,0 31,-7 61,-16 z m 718,-1069 c 38,-105 81,-221 96,-259 14,-38 24,-70 22,-73 -6,-5 -197,503 -197,524 0,18 15,-20 79,-192 z"
       id="path6"
       inkscape:connector-curvature="0" />
    <path
       d="m 5964,5995 c -28,-8 -77,-26 -109,-42 -150,-72 -196,-276 -116,-513 70,-209 253,-508 436,-715 128,-145 211,-252 265,-344 125,-215 156,-442 69,-516 -36,-29 -108,-34 -163,-11 -33,14 -34,15 -38,84 -4,79 -21,107 -69,117 -53,12 -106,-4 -147,-45 -80,-77 -77,-154 8,-234 63,-59 106,-70 265,-71 113,0 136,3 177,22 78,36 116,71 149,138 26,54 32,78 39,182 16,233 -22,389 -146,601 -100,168 -209,303 -473,582 -136,143 -150,161 -183,240 -70,164 -89,282 -53,336 21,32 72,54 125,54 h 40 v -41 c 0,-33 6,-47 34,-75 40,-40 72,-43 126,-13 65,37 75,82 32,150 -38,58 -93,105 -139,118 -48,14 -66,13 -129,-4 z m 151,-41 c 32,-15 80,-66 104,-113 10,-18 10,-30 2,-48 -13,-28 -69,-54 -100,-46 -29,7 -51,52 -51,103 v 40 h -62 c -198,-1 -233,-129 -115,-419 42,-104 43,-105 187,-256 284,-295 433,-488 527,-680 81,-166 104,-288 91,-486 -10,-166 -54,-242 -166,-291 -98,-44 -317,-31 -391,22 -52,38 -85,107 -71,146 16,42 59,83 99,94 51,14 59,13 86,-15 22,-21 25,-33 25,-90 v -66 l 48,-22 c 65,-29 147,-29 188,0 99,71 97,277 -6,489 -64,133 -156,258 -343,467 -150,169 -343,495 -403,680 -51,160 -42,302 26,395 63,88 235,139 325,96 z"
       id="path8"
       inkscape:connector-curvature="0" />
  </g>
</svg>
