<?xml version="1.0" standalone="no"?>
<!DOCTYPE svg PUBLIC "-//W3C//DTD SVG 20010904//EN"
 "http://www.w3.org/TR/2001/REC-SVG-20010904/DTD/svg10.dtd">
<svg version="1.0" xmlns="http://www.w3.org/2000/svg"
 width="1199.000000pt" height="1280.000000pt" viewBox="0 0 1199.000000 1280.000000"
 preserveAspectRatio="xMidYMid meet">
<metadata>
Created by potrace 1.15, written by Peter Selinger 2001-2017
</metadata>
<g transform="translate(0.000000,1280.000000) scale(0.100000,-0.100000)"
fill="#000000" stroke="none">
<path d="M11702 12783 c-18 -8 -46 -33 -63 -54 l-30 -38 -36 25 c-59 40 -127
29 -182 -30 -24 -26 -25 -26 -45 -7 -39 35 -91 61 -124 61 -71 0 -165 -76
-178 -145 -13 -70 1 -117 47 -157 23 -21 37 -38 30 -38 -6 0 -29 -16 -50 -36
-48 -42 -76 -109 -67 -156 5 -30 3 -36 -23 -51 -16 -9 -74 -59 -128 -111 l-98
-94 -165 163 c-91 89 -171 164 -178 166 -8 3 -17 20 -20 38 -7 30 -14 36 -69
56 -96 35 -157 79 -213 156 -61 84 -86 90 -143 31 -58 -60 -53 -77 57 -185 91
-89 146 -170 146 -219 0 -14 9 -17 52 -15 45 2 53 -1 56 -18 2 -11 73 -90 158
-175 l154 -155 -135 -135 -135 -135 -131 130 c-71 72 -137 145 -145 164 -12
28 -17 32 -39 27 -32 -8 -32 -1 -3 125 21 96 21 96 2 130 -48 83 -177 131
-293 110 -149 -28 -209 -95 -218 -246 -12 -192 56 -305 185 -305 40 0 67 7 96
24 52 30 79 22 86 -25 4 -27 10 -35 30 -37 16 -2 69 -48 152 -130 l127 -126
-828 -835 c-455 -460 -983 -993 -1173 -1185 l-345 -350 -64 63 c-74 72 -190
152 -304 209 -196 97 -431 184 -622 228 -212 50 -510 34 -768 -41 -265 -77
-462 -194 -674 -399 -175 -171 -228 -244 -559 -776 -179 -288 -216 -334 -317
-395 -62 -37 -198 -85 -240 -85 -26 0 -26 1 -50 -115 -9 -44 -18 -87 -21 -96
-3 -11 16 -26 70 -52 131 -65 189 -161 189 -312 0 -100 -23 -164 -103 -284
-204 -304 -621 -660 -928 -791 -170 -72 -406 -112 -543 -91 -179 28 -315 142
-385 321 -9 25 -18 46 -20 48 -1 2 -47 -10 -102 -27 l-100 -31 -4 -63 c-5 -80
-45 -164 -112 -235 -61 -65 -210 -166 -516 -352 -482 -293 -687 -440 -953
-688 -304 -283 -507 -590 -616 -934 -129 -405 -102 -728 116 -1393 118 -358
198 -530 346 -740 151 -214 264 -332 420 -436 49 -32 92 -59 96 -59 5 0 11
-29 13 -65 6 -68 35 -130 80 -172 40 -38 138 -91 207 -114 59 -19 74 -30 139
-100 88 -95 219 -195 366 -279 110 -63 406 -199 568 -260 l87 -32 -21 -28
c-11 -15 -26 -54 -34 -85 -39 -172 90 -335 267 -335 134 0 258 123 261 260 1
45 3 49 22 45 130 -28 403 -49 541 -40 549 33 887 177 1317 562 179 160 305
315 420 513 93 161 344 668 399 805 68 171 101 236 159 315 85 114 178 192
294 246 62 28 77 40 82 62 3 15 12 52 20 83 19 77 18 79 -16 79 -97 0 -244
110 -300 223 -76 155 -55 442 50 688 63 149 261 475 406 669 82 110 219 244
322 314 90 62 145 70 245 37 77 -26 200 -97 290 -169 l64 -51 111 37 c110 36
112 37 112 67 0 57 30 149 81 254 75 153 145 219 424 403 249 164 291 196 462
356 134 126 269 274 344 379 111 152 211 391 245 583 25 140 23 426 -5 584
-60 339 -233 670 -558 1064 l-22 27 1177 1362 1177 1363 135 -133 c74 -74 148
-139 164 -146 27 -11 28 -14 23 -56 l-6 -44 50 -16 c61 -21 113 -60 203 -153
38 -39 77 -74 87 -77 24 -8 72 18 99 52 34 44 24 71 -50 126 -77 57 -119 116
-155 213 -22 58 -30 71 -45 67 -13 -3 -64 43 -186 167 -93 95 -168 178 -168
185 1 13 144 195 154 195 12 0 234 -230 227 -236 -14 -15 14 -44 43 -44 43 0
48 -34 16 -95 -31 -57 -32 -95 -7 -150 40 -88 109 -119 266 -118 113 0 153 12
203 64 49 50 65 94 70 195 4 82 2 98 -18 140 -13 26 -41 65 -62 86 -45 45 -67
47 -178 18 -100 -26 -114 -26 -107 2 7 26 -8 48 -34 48 -11 0 -73 55 -148 132
l-129 132 51 58 c40 46 56 58 79 58 43 0 79 30 133 110 l48 69 39 -38 c63 -64
112 -61 205 10 58 45 83 82 83 124 0 28 -23 79 -48 107 -13 16 -12 21 10 50
67 88 73 133 24 176 l-34 29 34 16 c46 23 68 59 60 101 -12 62 -126 209 -188
242 -35 18 -55 17 -96 -3z"/>
</g>
</svg>
