<?xml version="1.0" standalone="no"?>
<!DOCTYPE svg PUBLIC "-//W3C//DTD SVG 20010904//EN"
 "http://www.w3.org/TR/2001/REC-SVG-20010904/DTD/svg10.dtd">
<svg version="1.0" xmlns="http://www.w3.org/2000/svg"
 width="1280.000000pt" height="839.000000pt" viewBox="0 0 1280.000000 839.000000"
 preserveAspectRatio="xMidYMid meet">
<metadata>
Created by potrace 1.15, written by Peter Selinger 2001-2017
</metadata>
<g transform="translate(0.000000,839.000000) scale(0.100000,-0.100000)"
fill="#000000" stroke="none">
<path d="M11085 8367 c-56 -31 -56 -56 -1 -164 50 -98 70 -172 61 -220 -6 -32
-5 -33 28 -33 37 0 63 -21 54 -45 -4 -8 32 -93 80 -190 47 -97 84 -177 82
-179 -13 -10 -300 -138 -303 -135 -22 23 -146 296 -146 320 0 22 -5 32 -20 36
-29 8 -25 25 25 105 50 81 54 102 26 156 -38 74 -117 124 -216 137 -138 19
-222 -60 -260 -241 -16 -75 -8 -120 29 -168 33 -44 82 -60 151 -51 46 5 55 4
63 -12 6 -10 8 -31 5 -46 -4 -22 -1 -29 14 -33 13 -4 42 -51 88 -144 38 -77
67 -141 65 -144 -4 -3 -2582 -1185 -2645 -1212 -6 -2 -18 18 -28 45 -40 114
-183 291 -373 461 -260 235 -435 328 -728 392 -84 18 -134 22 -301 23 -189 0
-206 -2 -310 -29 -184 -47 -362 -126 -516 -227 -84 -55 -350 -254 -573 -427
-145 -114 -225 -139 -400 -129 l-104 7 -51 -78 c-28 -43 -51 -81 -51 -85 0 -4
16 -21 35 -38 19 -17 49 -60 66 -95 29 -59 31 -70 26 -137 -3 -46 -14 -92 -28
-123 -102 -219 -706 -500 -1159 -540 -139 -12 -340 23 -467 81 -95 44 -155
101 -199 191 -31 62 -37 86 -42 162 l-5 90 -51 6 c-28 3 -70 6 -93 6 -39 0
-42 -2 -64 -47 -30 -63 -92 -123 -160 -156 -71 -35 -231 -74 -564 -137 -471
-89 -646 -136 -955 -257 -335 -132 -596 -313 -794 -552 -256 -310 -338 -584
-368 -1241 -10 -236 -10 -282 5 -418 26 -227 91 -462 174 -625 26 -52 94 -157
135 -209 18 -23 20 -31 10 -53 -7 -14 -12 -52 -12 -84 0 -82 33 -143 130 -235
70 -66 83 -85 109 -152 70 -180 214 -366 476 -615 148 -141 261 -237 389 -333
72 -53 84 -66 64 -66 -71 0 -168 -63 -204 -132 -22 -43 -29 -121 -14 -172 15
-56 69 -120 124 -148 60 -32 156 -31 216 2 53 30 105 96 121 152 11 43 5 118
-13 151 -5 10 -8 21 -5 23 2 2 42 -13 89 -35 256 -119 528 -180 794 -181 378
0 858 173 1167 421 137 110 442 392 627 580 168 170 179 179 270 223 110 53
191 76 270 76 l56 0 47 73 46 72 -33 17 c-109 56 -189 232 -165 363 46 252
199 451 545 712 228 172 398 270 555 317 152 46 214 32 315 -72 44 -46 162
-209 176 -243 2 -3 48 -9 103 -12 l100 -5 35 59 c19 34 71 95 118 141 101 97
182 138 352 178 63 15 184 44 268 64 237 57 581 204 767 328 100 66 254 219
322 318 208 306 295 701 238 1090 -19 129 -68 329 -114 464 -17 49 -30 90 -28
91 8 7 2777 1505 2781 1505 2 0 36 -66 75 -146 39 -80 80 -153 92 -163 l22
-18 -21 -34 -21 -34 34 -24 c48 -32 83 -82 121 -170 37 -85 64 -121 91 -121
28 0 97 44 101 63 2 10 -14 46 -37 80 -53 82 -61 107 -68 203 -5 69 -9 84 -25
91 -11 5 -26 24 -33 43 -7 19 -46 104 -86 189 -41 85 -69 156 -64 158 6 2 51
27 100 57 l90 55 57 -121 c41 -85 56 -127 52 -144 -5 -19 -1 -26 19 -33 42
-16 42 -40 -1 -80 -99 -92 -65 -221 75 -284 137 -61 216 -61 285 1 55 49 98
141 98 208 0 64 -26 141 -54 159 -12 8 -61 19 -109 24 -103 12 -111 15 -94 42
10 17 8 22 -15 42 -23 19 -138 247 -138 273 0 5 28 23 62 41 48 25 65 30 80
22 29 -16 73 -1 144 47 35 24 66 44 68 44 2 0 6 -13 9 -29 16 -77 95 -100 202
-60 87 32 106 76 80 174 -5 15 2 24 30 40 69 36 93 94 60 142 -14 20 -13 21
25 27 58 9 84 47 75 111 -9 70 -50 183 -76 211 -35 37 -72 40 -135 9 -30 -15
-56 -25 -58 -24 -1 2 -12 18 -25 36 -29 42 -75 52 -137 28 -25 -9 -46 -16 -47
-14 -1 2 -11 21 -22 43 -26 51 -57 70 -115 69 -96 -1 -159 -56 -168 -145 -4
-39 0 -55 16 -77 l20 -27 -45 -13 c-54 -14 -111 -66 -119 -110 -5 -23 -13 -31
-38 -37 -17 -4 -94 -33 -171 -66 -175 -74 -177 -74 -138 -48 l31 21 -87 179
c-48 99 -93 186 -100 194 -7 9 -10 27 -7 43 5 24 0 32 -35 58 -62 45 -115 117
-134 183 -31 106 -49 119 -120 79z"/>
</g>
</svg>
